<?xml version="1.0" encoding="utf-8"?>
<!-- Generator: Adobe Illustrator 18.0.0, SVG Export Plug-In . SVG Version: 6.00 Build 0)  -->
<!DOCTYPE svg PUBLIC "-//W3C//DTD SVG 1.1//EN" "http://www.w3.org/Graphics/SVG/1.1/DTD/svg11.dtd">
<svg version="1.1" id="Слой_2" xmlns="http://www.w3.org/2000/svg" xmlns:xlink="http://www.w3.org/1999/xlink" x="0px" y="0px"
	 viewBox="0 284 1590 663" enable-background="new 0 284 1590 663" xml:space="preserve">
<path fill="#000000"    d="M642.6,844.2c-3.6-9.3-0.5-26,11.9-26.6
	c-6.6-7-0.9-16.2,4.6-21.5c6.2-6,15.6-7.7,24.2-7.6c-7.4-5.7,11.5-7,14.7-5.7c-5.2-7.4,11-7.8,14.6-8.2c2-8,9.8-16.8,17.1-19.9
	c-0.4,0.1-0.9,0.1-1.3-0.1c-1.5-4.8,4.5-6.9,7.8-8.2c1.5-4.9-2.1-7,2.1-11.5c2.7-2.8,7.3-4.4,10.7-5.7c5.2-1.9,9.8-2.8,14.8-2
	c5.2,0.8,9.5,4.1,14.3,4.8l7.3-0.9c-3.7-4.4,4.5-10.9,8.2-12.7c4.9-2.4,11.5-4,17.1-3.4c4.5,0.4,9.7,2,13.1,5
	c3.6,3,5.8,7.4,9.7,10.2c-1.7-8.7,17.9-8.5,23.6-8.1c-15-13.9,35.4-25,66.6,10.7c0.1-0.5,16.2-19.1,42.1,6.6
	c1.9,1.9,28.2-9.7,25.6,20.7c10.9-12.6,21.7,12.1,16,27.7c-2.4,6.5,5.6,8.7,1.9,15.9c-5.2,9.8-26.2,35.2-57.1,31.3
	c0,4.1-6.1,10.9-8.6,14.2c-4.1,5.4-9.8,10.1-16.2,12.1c-7,2.3-14.4,3.2-21.9,2c-6.8-1.2-15.9-5.2-15.9-5.2s-15.6,7-23.2,5.7
	c-8.6-1.5-13,0.9-20.9,3c-14,3.4-31.3,0.5-44.7-3c-4.5-1.2-12.7-5-12.7-5s-11.3-0.3-16.4-0.3c-11.7,0-21.7,3.8-32.7,4.5
	c-11.7,0.8-32.7-4.5-32.7-4.5s-20.8,3.6-31.9,3.6C674.7,862.5,647.3,856.1,642.6,844.2z"/>
<path fill="#000000"    d="M55.4,771.3c-7.7-0.4-19.7-6.4-26.5-10.7
	c-7.6-4.9-15.1-12.5-18.4-20.9C2,717.5,14.3,700.2,37,695.5c-5.4-18.7,10.7-26.8,23.7-35.1c-8.6-1.6-7.7-19.9-8.1-26.6
	c-0.7-10.5,1.2-23.5,4.4-33c2.8-8.5,8.9-19.3,18.4-21.7c10.9-2.6,18.6,5.2,23.6,12.7c0.1-12.2,26.9-18.2,34.6-11.5
	c5.3,4.5,4,12.5,0.4,17.4c-3.7,5-10.5,8.3-13.1,14c9.1,3,10.1-0.9,13.8-3.3c4.1-2.7,4.1-6.9,9-7.4c-5.6-11.9,22.8-34.2,32.7-21.7
	c0.1-9.8,21.9-13.1,28.2-11c-1.1-8.2-1.6-11.1,4.5-18.3c11.1-13.4,34.6-16.6,42.1-12.9c2.3,1.1,6.8,4.4,8.2,6.5
	c1.7,2.4,1.7,6.2,3.6,9c7.3-31.5,36.6-13.9,40.9-8.7c3.8,4.6,5.4,10.9,8.2,16c3.3-4.1,4.2-10.2,7.6-14.8c3.8-5.2,7.8-10.9,13.6-13.6
	c12.6-6.1,24-2.5,33.5,7.7c2-7.6,14-7.3,19.9-8.1c-3.2-5.6,0.4-12.6,5.7-15.1c6.5-3,14.3-0.9,20,3c-3.2-3.3,2-14.2,5.3-17
	c7.4-6.5,14.7-3.4,20.8,2.5c4.1-6,5.3-11.8,13.6-14.4c8.7-2.8,12.2,1.2,16.8,8.1c12.2-15.2,36.6-19.7,52.3-10.7
	c5.8-11.1,24.4-13.8,34.8-9.1c12.6,5.6,18.4,17,21.1,29.3c4.8,2,10.1,11.9,12.9,16.6c4.9,8.2,4.4,16.7,4.2,26.1
	c3.3-12.3,26-16.2,33.9-8c5,5.3,6,11.7,4.4,18.2c-1.2,4.6-4.1,15.9-9.8,16.4c8.5-0.1,15.1-0.4,22.3,4.8c5.2,3.6,67.6,83.1-44.4,112
	c4.9,5,8.2,12.1,8.1,19.9c-0.1,8.6-14.6,49.2-60.2,36.8c-0.1,6.1,1.1,8.5-2.9,14c-3.3,4.6-32.6,38.4-127.2,3.3
	c-2.8,7.2-24.5,4.1-30.2,2.1c-9.5-3.2-18.7-8.3-27.2-13.4c-4.6,12.2-22.9,17.6-33.9,20.7c-14.8,4-31.7,5.8-46.5,0
	c-3.7-1.5-6.5-3.2-9.8-5.4c-4.4-3.2-3.7-2.6-8.3-1.7c-7.6,1.5-14.8,3.3-22.5,4.8c-19.9,3.8-40.3,8.9-61,4.4
	c-6.9-1.5-13.2-4-19.6-7.2c-3.8-1.9-9.5-6.5-13.4-7.3c-4.1-0.8-7.6,2.1-11.7,3.8c-5.4,2.4-11.5,4.4-17.4,6.1
	C98.7,779.7,55.4,771.3,55.4,771.3z"/>
<path fill="#000000"    d="M911.6,580.9c-38.3-6.4-38.3-32.7-6.5-36.6
	c-4.4-10.2,10.9-24.8,20.9-19.1c2.1-7.4-2.8-10.7,5.4-16.6c4.9-3.6,10.9-4.4,16.4-2.6c-6.2-29.8,50.2-42.7,44-9.1
	c7.8,0.1,15.6-4,23.5-4.5c1.1-12.3,14.7-49,41.3-16.3c2.8-2.4,5.3-4.1,8.9-5.6c-11.5-13.1,20.4-29.8,29.3-16.6
	c1.7-4.4,3.7-15.1,20.8-6.4c-10.9-32.5,28.5-33.8,34.6-31c6.5-19.6,58.4-50.6,54.7,22c7.3-32.5,22.5-37.4,29.9-31.8
	c-8.7-4.5-6.4-19.7,0.1-25.2c7.9-6.5,19.7-6.4,28.4-3.3c-5.2-8.5-6.6-27.4,2.4-34.6c4.8-3.8,13.4-4,19.3-3.3c6.2,0.7,9,4.6,14.4,7.2
	c-3.4-37.2,56.8-30.2,62-26.5c-10.2-28.1,116.7-51.8,101.4,4.4c36.3-21.5,93,35.9,62.8,67.6c43.6-4.4,83.7,47.6,39.2,85.1
	c0.3,2.5,30.9,58.2-61.1,89.8c13.1,0.9,20.8,13.2,25.2,24.8c5.8,15.5-1.9,30.2-11.5,42.1c-11.7,14.3-28.5,13.4-45.6,11.7
	c-7.7-0.8-14.6-2.4-21.9-4.5c-5.7-1.7-31-19.1-31-19.1s-25.7,3.2-31.8,4.6c-4.6,36.7-113.2,32.1-141.2,11.1
	c-9.3,14.2-105.7,43.3-129.3-1.1c-4.6,5.2-133.2,26.8-124.3-15.2c-24.4,18.8-50.7,7-51.9-5.7c-10.9-0.9-50-9.3-24.5-27.4
	L911.6,580.9z"/>
</svg>
